{
    "asset" : {
        "generator" : "Khronos glTF Blender I/O v1.0.5",
        "version" : "2.0"
    },
    "scene" : 0,
    "scenes" : [
        {
            "name" : "Scene",
            "nodes" : [
                0
            ]
        }
    ],
    "nodes" : [
        {
            "mesh" : 0,
            "name" : "HiresPlane"
        }
    ],
    "materials" : [
        {
            "alphaMode" : "BLEND",
            "doubleSided" : true,
            "name" : "HiresPlane_mat",
            "pbrMetallicRoughness" : {
                "baseColorFactor" : [
                    1,
                    1,
                    1,
                    1
                ],
                "metallicFactor" : 0.10000000149011612,
                "roughnessFactor" : 0.5
            }
        }
    ],
    "meshes" : [
        {
            "name" : "Mesh.003",
            "primitives" : [
                {
                    "attributes" : {
                        "POSITION" : 0,
                        "NORMAL" : 1,
                        "TEXCOORD_0" : 2
                    },
                    "indices" : 3,
                    "material" : 0
                }
            ]
        }
    ],
    "accessors" : [
        {
            "bufferView" : 0,
            "componentType" : 5126,
            "count" : 441,
            "max" : [
                0.04999999701976776,
                0.04999999701976776,
                8.146034069511643e-09
            ],
            "min" : [
                -0.04999999701976776,
                -0.04999999701976776,
                -8.146034069511643e-09
            ],
            "type" : "VEC3"
        },
        {
            "bufferView" : 1,
            "componentType" : 5126,
            "count" : 441,
            "type" : "VEC3"
        },
        {
            "bufferView" : 2,
            "componentType" : 5126,
            "count" : 441,
            "type" : "VEC2"
        },
        {
            "bufferView" : 3,
            "componentType" : 5123,
            "count" : 2400,
            "type" : "SCALAR"
        }
    ],
    "bufferViews" : [
        {
            "buffer" : 0,
            "byteLength" : 5292,
            "byteOffset" : 0
        },
        {
            "buffer" : 0,
            "byteLength" : 5292,
            "byteOffset" : 5292
        },
        {
            "buffer" : 0,
            "byteLength" : 3528,
            "byteOffset" : 10584
        },
        {
            "buffer" : 0,
            "byteLength" : 4800,
            "byteOffset" : 14112
        }
    ],
    "buffers" : [
        {
            "byteLength" : 18912,
            "uri" : "data:application/octet-stream;base64,"
        }
    ]
}
